<svg width="72" height="72" viewBox="0 0 72 72" fill="none" xmlns="http://www.w3.org/2000/svg">
<path d="M0.982422 27.2885C0.982422 26.7342 0.982422 26.4571 0.986859 26.2226C1.23891 12.9062 11.9736 2.17152 25.29 1.91948C25.5244 1.91504 25.8016 1.91504 26.3559 1.91504H27.1439C28.414 1.91504 29.0491 1.91504 29.5858 1.93862C42.2567 2.49528 52.4022 12.6408 52.9588 25.3116C52.9824 25.8484 52.9824 26.4834 52.9824 27.7535V29.7138C52.9824 31.1678 52.9824 31.8948 52.949 32.509C52.3217 44.043 43.1104 53.2543 31.5764 53.8816C30.9622 53.915 30.2352 53.915 28.7812 53.915H27.6089C27.0272 53.915 26.7364 53.915 26.4904 53.9104C12.5163 53.6459 1.25157 42.3811 0.987078 28.4071C0.982422 28.1611 0.982422 27.8702 0.982422 27.2885Z" fill="#FF692E"/>
<g clip-path="url(#clip0_6151_11176)">
<path d="M18.7038 17.2418C16.8571 18.3008 15.2643 20.5851 16.5071 25.5389C16.5071 25.5389 6.44211 34.291 15.6318 43.2619C15.6318 43.2619 13.0062 55.0773 23.0712 55.7337" stroke="white" stroke-width="2.18803" stroke-linecap="round" stroke-linejoin="round"/>
<path d="M30.1515 23.5694C28.7457 23.5693 27.3714 23.1529 26.202 22.3726C25.0327 21.5922 24.1207 20.483 23.5811 19.1848C23.0415 17.8867 22.8986 16.4578 23.1703 15.0785C23.442 13.6992 24.1163 12.4313 25.1079 11.4348C26.0995 10.4383 27.3641 9.7579 28.742 9.47941C30.12 9.20091 31.5496 9.33681 32.8503 9.87C34.1511 10.4032 35.2648 11.3098 36.0509 12.4753C36.8369 13.6408 37.2601 15.0131 37.267 16.4189V55.9785C37.2592 57.1376 36.9409 58.2734 36.3452 59.2678C35.7496 60.2621 34.8982 61.0786 33.8799 61.6324C32.4377 62.4862 30.737 62.7944 29.0869 62.5009C27.4367 62.2074 25.9466 61.3317 24.8872 60.0329C23.8278 58.7341 23.2695 57.0984 23.3137 55.423C23.3578 53.7475 24.0015 52.1434 25.1278 50.9022L29.1013 46.5787" stroke="white" stroke-width="2.18803" stroke-miterlimit="10" stroke-linecap="round"/>
<path d="M36.0937 12.5682C36.4662 13.0162 36.7049 13.5601 36.7823 14.1375C36.8597 14.715 36.7727 15.3025 36.5313 15.8328C36.4216 16.0629 36.2866 16.2802 36.1287 16.4804C35.5549 17.2058 34.7174 17.6746 33.7991 17.7844C32.8808 17.8943 31.9563 17.6363 31.2275 17.0668" stroke="white" stroke-width="2.18803" stroke-miterlimit="10" stroke-linecap="round"/>
<path d="M25.548 30.2476C24.6338 29.9759 23.8588 29.3636 23.3832 28.5369C22.9076 27.7102 22.7677 26.7325 22.9924 25.8056C23.2171 24.8787 23.7892 24.0736 24.5906 23.5565C25.3919 23.0394 26.3613 22.8499 27.2984 23.027" stroke="white" stroke-width="2.18803" stroke-miterlimit="10" stroke-linecap="round"/>
<path d="M37.0911 32.8728C36.3179 32.2044 35.319 31.8559 34.2979 31.8982C33.2767 31.9405 32.3101 32.3704 31.5948 33.1004C31.5948 33.1004 25.8884 41.6512 21.6523 41.6512" stroke="white" stroke-width="2.18803" stroke-miterlimit="10" stroke-linecap="round"/>
<path d="M22.4932 47.9614L26.4491 49.283" stroke="white" stroke-width="2.18803" stroke-miterlimit="10" stroke-linecap="round"/>
<path d="M19.9814 34.2905C22.3394 35.4553 24.4844 37.0086 26.3267 38.8854" stroke="white" stroke-width="2.18803" stroke-miterlimit="10" stroke-linecap="round"/>
<path d="M60.9061 48.3204C60.9061 49.056 60.688 49.7752 60.2792 50.3869C59.8705 50.9986 59.2896 51.4753 58.6099 51.7569C57.9302 52.0384 57.1823 52.1121 56.4608 51.9685C55.7392 51.825 55.0765 51.4707 54.5563 50.9505C54.0361 50.4303 53.6818 49.7676 53.5383 49.046C53.3947 48.3245 53.4684 47.5766 53.7499 46.8969C54.0315 46.2172 54.5082 45.6363 55.1199 45.2276C55.7316 44.8189 56.4508 44.6007 57.1865 44.6007C58.173 44.6007 59.1191 44.9926 59.8166 45.6902C60.5142 46.3877 60.9061 47.3338 60.9061 48.3204V48.3204Z" stroke="white" stroke-width="2.18803" stroke-linejoin="round"/>
<path d="M37.5293 41.6075H42.553L49.2572 48.3204H53.4144" stroke="white" stroke-width="2.18803" stroke-linejoin="round"/>
<path d="M37.5293 50.4384H42.553L48.5482 56.3723" stroke="white" stroke-width="2.18803" stroke-linejoin="round"/>
<path d="M54.8582 59.0247C54.8599 59.7629 54.6425 60.4849 54.2335 61.0994C53.8244 61.7139 53.2422 62.1931 52.5606 62.4764C51.879 62.7597 51.1286 62.8342 50.4045 62.6907C49.6805 62.5471 49.0153 62.1918 48.4934 61.6699C47.9714 61.1479 47.6162 60.4827 47.4726 59.7587C47.329 59.0346 47.4036 58.2843 47.6868 57.6026C47.9701 56.921 48.4494 56.3388 49.0638 55.9298C49.6783 55.5208 50.4004 55.3033 51.1385 55.3051C52.125 55.3051 53.0711 55.697 53.7687 56.3945C54.4663 57.0921 54.8582 58.0382 54.8582 59.0247V59.0247Z" stroke="white" stroke-width="2.18803" stroke-linejoin="round"/>
<path d="M60.9061 23.4997C60.9044 22.7644 60.6847 22.0461 60.275 21.4356C59.8652 20.825 59.2837 20.3496 58.6038 20.0695C57.924 19.7893 57.1764 19.7169 56.4554 19.8614C55.7345 20.0059 55.0725 20.3608 54.5532 20.8814C54.0338 21.4019 53.6804 22.0647 53.5376 22.786C53.3948 23.5073 53.469 24.2548 53.7508 24.9339C54.0326 25.6131 54.5093 26.1935 55.1208 26.6018C55.7323 27.0102 56.4511 27.2281 57.1864 27.2281C57.6757 27.2281 58.1601 27.1316 58.6119 26.9442C59.0638 26.7567 59.4742 26.4819 59.8197 26.1356C60.1653 25.7893 60.4391 25.3782 60.6255 24.9259C60.8119 24.4736 60.9072 23.9889 60.9061 23.4997V23.4997Z" stroke="white" stroke-width="2.18803" stroke-linejoin="round"/>
<path d="M37.5293 30.2128H42.553L49.2572 23.4999H53.4669" stroke="white" stroke-width="2.18803" stroke-linejoin="round"/>
<path d="M37.5293 21.3729H42.553L48.487 15.4478" stroke="white" stroke-width="2.18803" stroke-linejoin="round"/>
<path d="M54.8582 12.7958C54.8582 12.058 54.6393 11.3368 54.2292 10.7235C53.8191 10.1102 53.2363 9.63231 52.5546 9.35037C51.8728 9.06844 51.1226 8.99509 50.3992 9.13966C49.6757 9.28423 49.0114 9.64022 48.4903 10.1625C47.9692 10.6848 47.6148 11.35 47.4719 12.0738C47.3291 12.7976 47.4042 13.5475 47.6877 14.2287C47.9712 14.9098 48.4505 15.4915 49.0648 15.9001C49.679 16.3087 50.4007 16.5259 51.1385 16.5242C51.6277 16.5242 52.1121 16.4277 52.564 16.2402C53.0159 16.0527 53.4263 15.778 53.7718 15.4316C54.1173 15.0853 54.3911 14.6742 54.5776 14.2219C54.764 13.7696 54.8593 13.285 54.8582 12.7958V12.7958Z" stroke="white" stroke-width="2.18803" stroke-linejoin="round"/>
<path d="M37.4326 35.9102H46.6836" stroke="white" stroke-width="2.18803" stroke-linejoin="round"/>
<path d="M54.0799 35.9101C54.0799 36.6458 53.8618 37.3649 53.4531 37.9766C53.0443 38.5883 52.4634 39.0651 51.7837 39.3466C51.1041 39.6282 50.3562 39.7018 49.6346 39.5583C48.9131 39.4147 48.2503 39.0605 47.7301 38.5403C47.2099 38.0201 46.8556 37.3573 46.7121 36.6358C46.5686 35.9142 46.6422 35.1663 46.9238 34.4866C47.2053 33.807 47.6821 33.226 48.2937 32.8173C48.9054 32.4086 49.6246 32.1904 50.3603 32.1904C51.3468 32.1904 52.2929 32.5823 52.9905 33.2799C53.688 33.9775 54.0799 34.9236 54.0799 35.9101Z" stroke="white" stroke-width="2.18803" stroke-linejoin="round"/>
<path d="M32.2256 54.6658C32.5078 54.1236 32.9676 53.6947 33.528 53.4507C34.0885 53.2067 34.7157 53.1625 35.3049 53.3254C35.894 53.4883 36.4094 53.8485 36.7649 54.3458C37.1204 54.843 37.2945 55.4472 37.2581 56.0573" stroke="white" stroke-width="2.18803" stroke-miterlimit="10" stroke-linecap="round"/>
</g>
<defs>
<clipPath id="clip0_6151_11176">
<rect width="51.34" height="55.8561" fill="white" transform="translate(10.6602 7.98242)"/>
</clipPath>
</defs>
</svg>
