<svg width="72" height="72" viewBox="0 0 72 72" fill="none" xmlns="http://www.w3.org/2000/svg">
<path d="M19.9824 45.2885C19.9824 44.7342 19.9824 44.4571 19.9869 44.2226C20.2389 30.9062 30.9736 20.1715 44.29 19.9195C44.5244 19.915 44.8016 19.915 45.3559 19.915H46.1439C47.414 19.915 48.0491 19.915 48.5858 19.9386C61.2567 20.4953 71.4022 30.6408 71.9588 43.3116C71.9824 43.8484 71.9824 44.4834 71.9824 45.7535V47.7138C71.9824 49.1678 71.9824 49.8948 71.949 50.509C71.3217 62.043 62.1104 71.2543 50.5764 71.8816C49.9622 71.915 49.2352 71.915 47.7812 71.915H46.6089C46.0272 71.915 45.7364 71.915 45.4904 71.9104C31.5163 71.6459 20.2516 60.3811 19.9871 46.4071C19.9824 46.1611 19.9824 45.8702 19.9824 45.2885Z" fill="#FF692E"/>
<path d="M39.6331 15.3703L38.4199 7.99927H30.5741L30.0879 11.2857" stroke="white" stroke-width="2.0507" stroke-linecap="round" stroke-linejoin="round"/>
<path d="M16.6117 24.9318C15.6149 26.6119 14.8634 28.4261 14.3802 30.319L7 31.5735V39.4193L14.3802 40.6761C14.8674 42.583 15.6266 44.4097 16.6347 46.1L12.2772 52.1684L17.825 57.7162L23.8933 53.3587C25.5849 54.3638 27.4113 55.1221 29.3173 55.6109L30.5856 62.9957H38.4314L39.6881 55.6155" stroke="white" stroke-width="2.0507" stroke-linecap="round" stroke-linejoin="round"/>
<path d="M29.3607 15.3707C27.4543 15.8549 25.627 16.6094 23.9345 17.6114L17.8271 13.2928L12.2793 18.8383L14.1461 21.4483" stroke="white" stroke-width="2.0507" stroke-linecap="round" stroke-linejoin="round"/>
<path d="M60.0396 39.0297C58.0902 39.0297 56.7256 37.4496 56.7256 35.4979C56.7491 34.5764 57.1316 33.7006 57.7916 33.0572C58.4516 32.4138 59.3369 32.0537 60.2586 32.0537C61.1803 32.0537 62.0656 32.4138 62.7256 33.0572C63.3856 33.7006 63.7681 34.5764 63.7916 35.4979C63.7916 37.4496 61.9913 39.0297 60.0396 39.0297Z" stroke="white" stroke-width="2.0507" stroke-linejoin="round"/>
<path d="M56.3457 35.4977H34.8174" stroke="white" stroke-width="2.0507" stroke-linecap="round" stroke-linejoin="round"/>
<path d="M47.9007 18.9781C47.2015 18.9786 46.5179 18.7716 45.9364 18.3835C45.3548 17.9953 44.9015 17.4434 44.6337 16.7975C44.3659 16.1516 44.2958 15.4408 44.4321 14.755C44.5683 14.0693 44.905 13.4393 45.3994 12.9449C45.8938 12.4505 46.5237 12.1139 47.2095 11.9776C47.8953 11.8413 48.6061 11.9115 49.2519 12.1793C49.8978 12.447 50.4498 12.9004 50.8379 13.4819C51.2261 14.0635 51.433 14.7471 51.4326 15.4462C51.4326 16.383 51.0605 17.2813 50.3981 17.9437C49.7358 18.606 48.8374 18.9781 47.9007 18.9781Z" stroke="white" stroke-width="2.0507" stroke-linejoin="round"/>
<path d="M47.9007 52.0148C47.2015 52.0143 46.5179 52.2213 45.9364 52.6094C45.3548 52.9976 44.9015 53.5495 44.6337 54.1954C44.3659 54.8413 44.2958 55.5521 44.4321 56.2379C44.5683 56.9236 44.905 57.5536 45.3994 58.048C45.8938 58.5424 46.5237 58.879 47.2095 59.0153C47.8953 59.1516 48.6061 59.0814 49.2519 58.8136C49.8978 58.5459 50.4498 58.0925 50.8379 57.511C51.2261 56.9294 51.433 56.2458 51.4326 55.5466C51.4326 54.6099 51.0605 53.7116 50.3981 53.0492C49.7358 52.3869 48.8374 52.0148 47.9007 52.0148V52.0148Z" stroke="white" stroke-width="2.0507" stroke-linejoin="round"/>
<path d="M25.8379 24.7364C28.2899 22.7574 31.3468 21.6799 34.4979 21.6839H40.8598L45.5682 18.0465" stroke="white" stroke-width="2.0507" stroke-linecap="round" stroke-linejoin="round"/>
<path d="M45.5681 52.9481L40.8597 49.2993H34.4978C32.0539 49.2989 29.6539 48.6499 27.5429 47.4184C25.4319 46.187 23.6857 44.4173 22.4825 42.2901C21.2793 40.1629 20.6623 37.7544 20.6946 35.3107C20.7268 32.867 21.4071 30.4757 22.666 28.381" stroke="white" stroke-width="2.0507" stroke-linecap="round" stroke-linejoin="round"/>
<path d="M55.5104 27.9037C54.8117 27.9037 54.1288 27.6965 53.5479 27.3083C52.9671 26.9201 52.5144 26.3684 52.2471 25.7229C51.9799 25.0774 51.9101 24.3671 52.0466 23.682C52.183 22.9968 52.5196 22.3675 53.0138 21.8736C53.508 21.3798 54.1375 21.0436 54.8228 20.9076C55.508 20.7715 56.2182 20.8418 56.8636 21.1095C57.5089 21.3771 58.0603 21.8302 58.4481 22.4113C58.836 22.9924 59.0427 23.6755 59.0423 24.3741C59.0423 24.8378 58.9509 25.297 58.7734 25.7254C58.5958 26.1537 58.3356 26.5429 58.0077 26.8707C57.6797 27.1985 57.2903 27.4585 56.8618 27.6357C56.4333 27.8129 55.9741 27.904 55.5104 27.9037V27.9037Z" stroke="white" stroke-width="2.0507" stroke-linejoin="round"/>
<path d="M55.5104 43.0881C54.8118 43.0881 54.129 43.2953 53.5482 43.6834C52.9674 44.0714 52.5147 44.623 52.2474 45.2684C51.98 45.9138 51.9101 46.6239 52.0464 47.309C52.1827 47.9942 52.519 48.6235 53.013 49.1174C53.5069 49.6114 54.1362 49.9477 54.8213 50.084C55.5065 50.2203 56.2166 50.1503 56.862 49.883C57.5073 49.6157 58.0589 49.163 58.447 48.5822C58.8351 48.0014 59.0423 47.3185 59.0423 46.62C59.0426 46.1561 58.9514 45.6967 58.774 45.2681C58.5966 44.8394 58.3365 44.4499 58.0085 44.1219C57.6804 43.7939 57.291 43.5338 56.8623 43.3564C56.4337 43.179 55.9743 43.0878 55.5104 43.0881V43.0881Z" stroke="white" stroke-width="2.0507" stroke-linejoin="round"/>
<path d="M51.8778 45.2209L45.6856 42.4092H34.4982C33.58 42.4259 32.6677 42.2595 31.8146 41.9197C30.9614 41.5799 30.1845 41.0735 29.5293 40.43C28.874 39.7866 28.3535 39.0191 27.9982 38.1722C27.6429 37.3254 27.46 36.4163 27.46 35.4979C27.46 34.5796 27.6429 33.6705 27.9982 32.8236C28.3535 31.9768 28.874 31.2093 29.5293 30.5658C30.1845 29.9224 30.9614 29.416 31.8146 29.0762C32.6677 28.7364 33.58 28.57 34.4982 28.5867H45.6947L51.887 25.7704" stroke="white" stroke-width="2.0507" stroke-linejoin="round"/>
</svg>
