<svg width="73" height="72" viewBox="0 0 73 72" fill="none" xmlns="http://www.w3.org/2000/svg">
<path d="M22.3001 10.3326C22.8428 10.2196 23.1141 10.1632 23.3445 10.1198C36.4332 7.65402 49.1293 15.977 52.0886 28.9629C52.1407 29.1915 52.1972 29.4629 52.3101 30.0056L52.4706 30.7771C52.7293 32.0205 52.8587 32.6423 52.9449 33.1726C54.9809 45.6911 47.1147 57.6906 34.823 60.8165C34.3023 60.949 33.6805 61.0783 32.437 61.337L30.5179 61.7363C29.0943 62.0325 28.3826 62.1806 27.7744 62.273C16.3545 64.0083 5.46001 56.8664 2.49642 45.702C2.33861 45.1075 2.19051 44.3958 1.89433 42.9722L1.65555 41.8245C1.53706 41.255 1.47782 40.9703 1.43227 40.7285C-1.15525 26.9935 7.57874 13.6704 21.206 10.565C21.4458 10.5103 21.7306 10.451 22.3001 10.3326Z" fill="#FF692E"/>
<g clip-path="url(#clip0_6151_11220)">
<path d="M18.1787 40.5826V35.7183L23.2539 34.8837C23.5875 33.5703 24.1071 32.3115 24.797 31.1452L21.815 26.9417L25.6338 23.1206L29.8396 26.1027C30.9965 25.4172 32.245 24.8998 33.5476 24.566L34.417 19.4844H39.8225L40.6919 24.566C42.0046 24.9025 43.2622 25.4259 44.426 26.1201L48.6035 23.1206L52.4245 26.9417L49.425 31.1192C50.1171 32.2841 50.6404 33.5413 50.9791 34.8532L56.0608 35.7226V40.5869" stroke="white" stroke-width="2.17351" stroke-linejoin="round"/>
<path d="M29.2011 33.6445C28.0556 35.5455 27.6313 37.7948 28.0057 39.9825" stroke="white" stroke-width="2.17351" stroke-linecap="round" stroke-linejoin="round"/>
<path d="M46.2235 40.004C46.4526 38.6766 46.3891 37.3152 46.0375 36.0149C45.6859 34.7147 45.0546 33.5068 44.1877 32.4758C43.3209 31.4448 42.2394 30.6156 41.0188 30.0459C39.7982 29.4762 38.4679 29.18 37.1209 29.1777C35.4909 29.1754 33.8895 29.6059 32.4805 30.4253" stroke="white" stroke-width="2.17351" stroke-linecap="round" stroke-linejoin="round"/>
<path d="M26.2168 57.9355H48.0149" stroke="white" stroke-width="2.17351" stroke-linecap="round" stroke-linejoin="round"/>
<path d="M33.3281 50.9148V57.6766" stroke="white" stroke-width="2.17351" stroke-linecap="round" stroke-linejoin="round"/>
<path d="M40.9023 50.9148V57.6766" stroke="white" stroke-width="2.17351" stroke-linecap="round" stroke-linejoin="round"/>
<path d="M10.3174 18.3669C10.3208 17.1724 10.7969 16.0278 11.6415 15.1831C12.4861 14.3385 13.6307 13.8624 14.8252 13.859H59.406C60.6005 13.8624 61.7451 14.3385 62.5898 15.1831C63.4344 16.0278 63.9104 17.1724 63.9139 18.3669V46.1573C63.9104 47.3516 63.4343 48.496 62.5896 49.3403C61.7449 50.1846 60.6003 50.6601 59.406 50.663H14.8252C13.6309 50.6601 12.4863 50.1846 11.6416 49.3403C10.7969 48.496 10.3208 47.3516 10.3174 46.1573V18.3669Z" stroke="white" stroke-width="2.17351" stroke-linejoin="round"/>
<path d="M14.2334 44.4777H59.9966" stroke="white" stroke-width="2.17351" stroke-linejoin="round"/>
</g>
<defs>
<clipPath id="clip0_6151_11220">
<rect width="55.77" height="46.25" fill="white" transform="translate(9.23047 12.7727)"/>
</clipPath>
</defs>
</svg>
