<svg
  width="119"
  height="35"
  viewBox="0 0 119 35"
  fill="none"
  xmlns="http://www.w3.org/2000/svg"
>
  <title>Revelo logo</title>
  <g clip-path="url(#clip0_7120_14045)">
    <path
      d="M8.82081 31.8467C2.46208 25.488 2.46208 15.1795 8.82081 8.82081C15.1795 2.46208 25.488 2.46208 31.8467 8.82081"
      stroke="#F16933"
      stroke-width="8.10324"
      stroke-linejoin="round"
    />
    <path
      d="M26.0897 14.5764C29.2685 17.7552 29.2685 22.91 26.0897 26.09C22.9109 29.2699 17.7561 29.2688 14.5762 26.09"
      stroke="#F16933"
      stroke-width="8.10324"
      stroke-linejoin="round"
    />
  </g>
  <g clip-path="url(#clip1_7120_14045)">
    <path
      d="M50.0177 13.5505C50.5326 13.5505 51.0579 13.6463 51.5986 13.8196L51.3425 17.5378C50.8017 17.3489 50.248 17.2532 49.7072 17.2532C48.0978 17.2532 46.7316 18.1329 46.7316 20.5522V26.7983H42.4727V13.8196H46.4884L46.6229 15.592C47.231 14.3087 48.517 13.5505 50.0177 13.5505Z"
      fill="#1D2939"
    />
    <path
      d="M65.1595 25.9082C64.1453 26.4903 62.2926 27.0699 60.3055 27.0699C55.4902 27.0699 52.6104 24.3919 52.6104 20.3089C52.6104 16.2259 55.4359 13.5479 59.2627 13.5479C63.0896 13.5479 66.3627 16.0215 65.4157 21.4034H56.7632C56.9806 22.9041 58.5874 23.4734 60.3339 23.4734C62.0805 23.4734 63.7546 23.1085 64.58 22.7152L65.1621 25.9056L65.1595 25.9082ZM61.6173 18.9039C61.6173 17.8896 60.766 16.9297 59.3326 16.9297C57.7646 16.9297 56.8848 17.8353 56.7762 18.9039H61.6173Z"
      fill="#1D2939"
    />
    <path
      d="M81.0939 13.8193L76.3201 26.8006H71.0727L66.2988 13.8193H70.7751L73.6964 22.6348L76.6176 13.8193H81.0939Z"
      fill="#1D2939"
    />
    <path
      d="M94.1342 25.9082C93.1199 26.4903 91.2672 27.0699 89.2801 27.0699C84.4648 27.0699 81.585 24.3919 81.585 20.3089C81.585 16.2259 84.4105 13.5479 88.2373 13.5479C92.0642 13.5479 95.3373 16.0215 94.3903 21.4034H85.7353C85.9526 22.9041 87.5594 23.4734 89.306 23.4734C91.0525 23.4734 92.7266 23.1085 93.552 22.7152L94.1342 25.9056V25.9082ZM90.5919 18.9039C90.5919 17.8896 89.7406 16.9297 88.3072 16.9297C86.7392 16.9297 85.8594 17.8353 85.7508 18.9039H90.5919Z"
      fill="#1D2939"
    />
    <path
      d="M101.198 26.8008H96.9395V7.76221H101.198V26.8008Z"
      fill="#1D2939"
    />
    <path
      d="M117.448 20.3116C117.448 24.1798 114.485 27.0726 110.47 27.0726C106.454 27.0726 103.491 24.1798 103.491 20.3116C103.491 16.4433 106.454 13.5505 110.47 13.5505C114.485 13.5505 117.448 16.4433 117.448 20.3116ZM107.711 20.3116C107.711 22.0685 108.847 23.3001 110.47 23.3001C112.092 23.3001 113.228 22.0711 113.228 20.3116C113.228 18.5521 112.092 17.3231 110.47 17.3231C108.847 17.3231 107.711 18.5521 107.711 20.3116Z"
      fill="#1D2939"
    />
  </g>
  <defs>
    <clipPath id="clip0_7120_14045">
      <rect width="34.7108" height="34.7108" fill="white" />
    </clipPath>
    <clipPath id="clip1_7120_14045">
      <rect
        width="74.9743"
        height="19.3102"
        fill="white"
        transform="translate(42.4727 7.76221)"
      />
    </clipPath>
  </defs>
</svg>